# AST/ASF file generated using VICON BodyLanguage
# -----------------------------------------------
:version 1.10
:name VICON
:units
  mass 1.0
  length 0.1
  angle deg
:documentation
   .ast/.asf automatically generated from VICON data using
   VICON BodyBuilder and BodyLanguage model FULLBODY5.MOD
:root
   order TX TY TZ RZ RY RX
   axis XYZ
   position 0 0 0  
   orientation 0 -0 0 
:bonedata
  begin
     id 1 
     name lhipjoint
     direction 0.969109 -0.218487 0.11442 
     length 0.544217 
     axis 0 -0 0  XYZ
  end
  begin
     id 2 
     name lfemur
     direction 0.173648 -0.984808 0  
     length 1.81499  
     axis 0 -0 10  XYZ
    dof rx ry rz
    limits (-180.0 180.0)
           (-180.0 180.0)
           (-180.0 180.0)
  end
  begin
     id 3 
     name ltibia
     direction 0.173515 -0.984831 0   
     length 1.55296   
     axis 0 -0 10   XYZ
    dof rx ry rz
    limits (-180.0 180.0)
           (-180.0 180.0)
           (-180.0 180.0)
  end
  begin
     id 4 
     name lfoot
     direction 7.36097e-012 -0.333012 0.942922   
     length 0.509062   
     axis -90 -1.73656e-015 10   XYZ
    dof rx ry rz
    limits (-180.0 180.0)
           (-180.0 180.0)
           (-180.0 180.0)
  end
  begin
     id 5 
     name ltoes
     direction 7.7847e-012 -4.42403e-011 1   
     length 0.249732   
     axis -90 -1.73656e-015 10   XYZ
    dof rx ry rz
    limits (-180.0 180.0)
           (-180.0 180.0)
           (-180.0 180.0)
  end
  begin
     id 6 
     name rhipjoint
     direction -0.966745 -0.226554 0.118645   
     length 0.524838  
     axis 0 -0 0  XYZ 
  end
  begin
     id 7 
     name rfemur
     direction -0.173648 -0.984808 0   
     length 1.84625   
     axis 0 -0 -10   XYZ
    dof rx ry rz
    limits (-180.0 180.0)
           (-180.0 180.0)
           (-180.0 180.0)
  end
  begin
     id 8 
     name rtibia
     direction -0.173714 -0.984796 0   
     length 1.577   
     axis 0 -0 -10   XYZ
    dof rx ry rz
    limits (-180.0 180.0)
           (-180.0 180.0)
           (-180.0 180.0)
 end
 begin
     id 9 
     name rfoot
     direction -0.0183819 -0.0406144 0.999006   
     length 0.490111  
     axis -90 1.73656e-015 -10   XYZ
    dof rx ry rz
    limits (-180.0 180.0)
           (-180.0 180.0)
           (-180.0 180.0)
  end
  begin
     id 10 
     name rtoes
     direction -7.79087e-012 -4.42375e-011 1   
     length 0.245053   
     axis -90 1.73656e-015 -10   XYZ
    dof rx ry rz
    limits (-180.0 180.0)
           (-180.0 180.0)
           (-180.0 180.0)
  end
  begin
     id 11 
     name lowerback
     direction -0.0664844 0.980601 0.184393   
     length 0.458979   
     axis 0 -0 0   XYZ
    dof rx ry rz
    limits (-180.0 180.0)
           (-180.0 180.0)
           (-180.0 180.0)
  end
  begin
     id 12 
     name upperback
     direction 0.0135995 0.999573 0.02588   
     length 0.463983   
     axis 0 -0 0   XYZ
    dof rx ry rz
    limits (-180.0 180.0)
           (-180.0 180.0)
           (-180.0 180.0)
  end
  begin
     id 13 
     name thorax
     direction 0.0468402 0.997311 -0.0563691   
     length 0.482746   
     axis 0 -0 0   XYZ
    dof rx ry rz
    limits (-180.0 180.0)
           (-180.0 180.0)
           (-180.0 180.0)
  end
  begin
     id 14 
     name lowerneck
     direction -0.00174311 0.988586 -0.150647   
     length 0.364383   
     axis 0 -0 0   XYZ
    dof rx ry rz
    limits (-180.0 180.0)
           (-180.0 180.0)
           (-180.0 180.0)
  end
  begin
     id 15 
     name upperneck
     direction -0.02653 0.999379 -0.0231908   
     length 0.361006   
     axis 0 -0 0   XYZ
    dof rx ry rz
    limits (-180.0 180.0)
           (-180.0 180.0)
           (-180.0 180.0)
  end
  begin
     id 16
     name head
     direction -0.00819207 0.999941 0.00714285  
     length 0.378714  
     axis 0 -0 0   XYZ
    dof rx ry rz
    limits (-180.0 180.0)
           (-180.0 180.0)
           (-180.0 180.0)
  end
  begin
     id 17 
     name lshoulderjoint
     direction 0.981627 -0.190809 0  
     length 0.612969  
     axis 0 -0 -11   XYZ
    dof rx ry rz
    limits (-180.0 180.0)
           (-180.0 180.0)
           (-180.0 180.0)
  end
  begin
     id 18 
     name lhumerus
     direction 0.48481 -0.87462 -9.72962e-027   
     length 1.19637   
     axis -180 5.14477e-009 -151   XYZ
    dof rx ry rz
    limits (-180.0 180.0)
           (-180.0 180.0)
           (-180.0 180.0)
  end
  begin
     id 19
     name lradius
     direction 0.48481 -0.87462 -2.35761e-026   
     length 0.637735   
     axis -180 5.14477e-009 -151   XYZ
    dof rx ry rz
    limits (-180.0 180.0)
           (-180.0 180.0)
           (-180.0 180.0)
  end
  begin
     id 20
     name lwrist
     direction 0.48481 -0.87462 -5.51856e-026   
     length 0.318868   
     axis -180 5.14477e-009 -151   XYZ
    dof rx ry rz
    limits (-180.0 180.0)
           (-180.0 180.0)
           (-180.0 180.0)
  end
  begin
     id 21 
     name lhand
     direction 0.477747 -0.861928 -0.169816   
     length 0.29526   
     axis -180 5.14477e-009 -151   XYZ
    dof rx ry rz
    limits (-180.0 180.0)
           (-180.0 180.0)
           (-180.0 180.0)
  end
  begin
     id 22 
     name rshoulderjoint
     direction -0.981627 -0.190809 0   
     length 0.572347  
     axis 0 -0 11   XYZ 
    dof rx ry rz
    limits (-180.0 180.0)
           (-180.0 180.0)
           (-180.0 180.0)
  end
  begin
     id 23 
     name rhumerus
     direction -0.48481 -0.87462 1.64836e-026  
     length 1.28846   
     axis 180 5.14477e-009 151   XYZ
    dof rx ry rz
    limits (-180.0 180.0)
           (-180.0 180.0)
           (-180.0 180.0)
  end
  begin
     id 24 
     name rradius
     direction -0.48481 -0.87462 2.86827e-026   
     length 0.62107   
     axis 180 5.14477e-009 151   XYZ
    dof rx ry rz
    limits (-180.0 180.0)
           (-180.0 180.0)
           (-180.0 180.0)
  end
  begin
     id 25 
     name rwrist
     direction -0.48481 -0.87462 5.20942e-026   
     length 0.310535   
     axis 180 5.14477e-009 151   XYZ
    dof rx ry rz
    limits (-180.0 180.0)
           (-180.0 180.0)
           (-180.0 180.0)
  end
  begin
     id 26
     name rhand
     direction -0.477664 -0.861515 -0.172133   
     length 0.291321   
     axis 180 5.14477e-009 151   XYZ
    dof rx ry rz
    limits (-180.0 180.0)
           (-180.0 180.0)
           (-180.0 180.0)
  end
:hierarchy
  begin
    root lhipjoint rhipjoint lowerback 
    lhipjoint lfemur
    lfemur ltibia
    ltibia lfoot
    lfoot ltoes
    rhipjoint rfemur
    rfemur rtibia
    rtibia rfoot
    rfoot rtoes
    lowerback upperback
    upperback thorax
    thorax lowerneck lshoulderjoint rshoulderjoint
    lowerneck upperneck
    upperneck head
    lshoulderjoint lhumerus
    lhumerus lradius
    lradius lwrist
    lwrist lhand
    rshoulderjoint rhumerus
    rhumerus rradius
    rradius rwrist
    rwrist rhand
  end

:FULLY-SPECIFIED
:DEGREES
1165
root -5.80262 3.58044 -0.63928 72.8464 -70.1567 66.229
lowerback -19.6058 -4.07583 -12.6268
upperback -5.1131 -3.16256 -0.183935
thorax 5.96241 -1.81217 6.16635
lowerneck 12.3147 -2.96861 0.773206
upperneck 3.74745 -4.07874 -4.75172
head -1.0208 -2.02422 -1.44179
rshoulderjoint -2.18208 6.29098 -30.1738
rhumerus 346.746 -8.98554 -412.739
rradius 27.4647 -3.01159e-014 -2.54444e-014
rwrist 5.72534e-013 0.62831 -2.62412e-014
rhand 0.620747 -0.556886 34.4685
lshoulderjoint -1.90103 -5.61287 29.7451
lhumerus 367.28 -2.99567 413.986
lradius 20.1741 -2.94201e-014 1.49486e-013
lwrist 9.23586e-013 -11.0517 4.88934e-013
lhand 10.5931 9.26609 -33.3206
rfemur -42.0454 3.31073 0.573975
rtibia -3.18055e-015 -2.38542e-014 5.56597e-015
rfoot -180.423 -54.3469 163.363
rtoes -3.49861e-014 -5.80451e-014 -1.03368e-014
lfemur -1.56078 -17.147 -22.1928
ltibia 8.50205 7.15625e-015 7.95139e-015
lfoot -18.5865 7.13143 10.0161
ltoes 1.9799e-013 -1.22948e-013 8.74653e-015
1166
root -5.8572 3.57639 -0.642235 71.4469 -69.8126 65.1782
lowerback -20.0591 -4.22487 -12.2541
upperback -5.19596 -3.38672 -0.0227719
thorax 6.14833 -1.92572 6.0576
lowerneck 12.4291 -2.93262 0.623981
upperneck 3.75003 -4.05476 -4.7592
head -1.03507 -2.01378 -1.41825
rshoulderjoint -2.18367 6.2933 -30.1803
rhumerus 346.576 -9.40599 -412.647
rradius 27.1906 -7.91163e-014 1.54257e-013
rwrist -3.91247e-013 0.805562 3.51486e-013
rhand 0.781619 -0.678491 34.3388
lshoulderjoint -1.87592 -5.55458 29.6945
lhumerus 367.01 -3.13218 414.042
lradius 19.7125 -1.10524e-013 3.73715e-014
lwrist -4.92834e-013 -11.2025 5.65382e-014
lhand 10.6719 9.55933 -33.3069
rfemur -41.5361 3.02388 1.2257
rtibia 4.45278e-014 -9.54166e-015 -1.74931e-014
rfoot -182.211 -53.7708 165.436
rtoes 1.63799e-013 -1.11319e-014 -1.91628e-013
lfemur -1.65994 -17.6749 -21.8557
ltibia 10.0966 9.54166e-015 -3.18055e-015
lfoot -19.0519 7.05069 10.2803
ltoes -1.20861e-013 3.598e-014 -7.95139e-015
1167
root -5.91258 3.57396 -0.645483 70.3692 -69.4081 64.4222
lowerback -20.6116 -4.36167 -11.9318
upperback -5.32632 -3.58335 0.156462
thorax 6.32829 -2.02553 5.99985
lowerneck 12.6157 -2.92263 0.486783
upperneck 3.73735 -4.06811 -4.86666
head -1.07104 -2.01941 -1.42623
rshoulderjoint -2.18295 6.27662 -30.2214
rhumerus 346.366 -9.82913 -412.553
rradius 26.8682 3.08116e-014 -2.46493e-014
rwrist -4.1354e-013 1.03899 -6.99837e-014
rhand 0.969737 -0.874401 34.2546
lshoulderjoint -1.83306 -5.47282 29.5498
lhumerus 366.694 -2.96454 414.145
lradius 19.1991 -1.19271e-014 -1.19271e-013
lwrist -4.3158e-013 -11.4348 -3.09691e-013
lhand 10.9005 9.71866 -33.1481
rfemur -41.208 2.79706 1.83593
rtibia -9.54166e-015 3.18055e-015 -7.95139e-015
rfoot -184.742 -53.3974 167.751
rtoes 4.29375e-014 -6.59965e-014 -2.90226e-014
lfemur -1.80061 -18.1202 -21.5219
ltibia 11.5304 0 3.97569e-015
lfoot -19.2907 6.85085 10.5837
ltoes -3.49861e-014 -1.55052e-014 1.98785e-014
1168
root -5.96823 3.57363 -0.648888 69.7566 -69.0049 64.0464
lowerback -21.2108 -4.45672 -11.6706
upperback -5.48232 -3.71216 0.285609
thorax 6.48775 -2.09214 5.93738
lowerneck 12.7355 -2.90362 0.377672
upperneck 3.85323 -4.06311 -4.96868
head -1.05376 -2.01984 -1.43956
rshoulderjoint -2.15561 6.20185 -30.2093
rhumerus 346.164 -10.2611 -412.452
rradius 26.5005 -3.18055e-015 5.56597e-014
rwrist -6.20371e-013 1.31353 1.08167e-013
rhand 1.197 -1.07803 34.2049
lshoulderjoint -1.781 -5.35511 29.4266
lhumerus 366.344 -2.67517 414.253
lradius 18.6703 1.90833e-014 -8.66701e-014
lwrist -8.79654e-013 -11.521 -3.52998e-013
lhand 11.2569 9.69235 -32.8789
rfemur -40.9669 2.68279 2.33585
rtibia -1.59028e-014 -1.59028e-015 6.36111e-015
rfoot -188.219 -52.8991 170.723
rtoes -1.27222e-014 1.31198e-014 -6.59965e-014
lfemur -1.95408 -18.4499 -21.247
ltibia 12.8114 2.22639e-014 -1.51076e-014
lfoot -19.2303 7.04481 10.8203
ltoes 6.04305e-014 3.97569e-014 7.15625e-014
1169
root -6.02373 3.57574 -0.651405 69.2454 -68.6854 63.8415
lowerback -21.7594 -4.49807 -11.2728
upperback -5.62387 -3.80834 0.403487
thorax 6.62174 -2.14001 5.79522
lowerneck 12.7194 -2.87867 0.291087
upperneck 4.14976 -4.04129 -5.05502
head -0.954099 -2.01849 -1.45489
rshoulderjoint -2.12208 6.13678 -30.1172
rhumerus 345.998 -10.6566 -412.311
rradius 26.094 -3.85642e-014 -6.36111e-014
rwrist 4.93171e-013 1.56853 -9.14752e-014
rhand 1.43271 -1.28031 34.2107
lshoulderjoint -1.73919 -5.26467 29.3103
lhumerus 365.916 -2.43557 414.302
lradius 18.1404 -5.08889e-014 -4.13472e-014
lwrist 4.77333e-013 -11.625 4.6678e-014
lhand 11.5036 9.86325 -32.6367
rfemur -42.8208 2.66199 2.82155
rtibia 4.84434 4.77083e-015 -8.74653e-015
rfoot -187.173 -50.9489 170.176
rtoes 1.67774e-013 2.37945e-013 -4.65156e-014
lfemur -2.02682 -18.691 -20.9463
ltibia 13.9969 -3.18055e-015 -2.8625e-014
lfoot -18.8753 7.14268 11.1474
ltoes -1.59028e-014 1.11518e-013 1.66979e-014
1170
root -6.07929 3.57998 -0.653224 68.9514 -68.4772 63.9982
lowerback -22.2891 -4.44405 -10.6491
upperback -5.72935 -3.83233 0.496787
thorax 6.759 -2.15063 5.51823
lowerneck 12.6455 -2.84902 0.326247
upperneck 4.44327 -3.99372 -5.12445
head -0.847969 -2.00321 -1.48778
rshoulderjoint -2.08109 6.07349 -29.9548
rhumerus 345.88 -11.0384 -412.181
rradius 25.6586 8.15017e-014 -3.10104e-014
rwrist -6.06214e-013 1.8563 -1.06605e-013
rhand 1.64917 -1.52295 34.2381
lshoulderjoint -1.70635 -5.16418 29.3127
lhumerus 365.427 -2.06249 414.391
lradius 17.65 3.57812e-014 -2.22639e-014
lwrist -5.19862e-013 -11.793 -1.77078e-013
lhand 11.7044 10.0525 -32.3817
rfemur -43.8202 2.72986 3.36343
rtibia 8.16989 -4.77083e-015 -7.15625e-015
rfoot -188.596 -56.4676 172.794
rtoes 4.85035e-014 9.01488e-014 -1.34577e-013
lfemur -2.06676 -18.7646 -20.5422
ltibia 15.1326 1.51076e-014 -1.59028e-014
lfoot -18.2591 7.54339 11.5007
ltoes -3.18055e-014 1.03567e-013 3.57812e-014
1171
root -6.13454 3.58602 -0.655076 68.9304 -68.4376 64.376
lowerback -22.6706 -4.35724 -10.0669
upperback -5.83725 -3.82806 0.589729
thorax 6.81286 -2.14415 5.27897
lowerneck 12.6362 -2.80775 0.328476
upperneck 4.70572 -3.93777 -5.18349
head -0.761628 -1.98341 -1.51121
rshoulderjoint -2.08238 6.1008 -29.8871
rhumerus 345.714 -11.3572 -412.091
rradius 25.2528 1.54654e-013 -1.11319e-014
rwrist -1.32077e-013 2.04661 -1.51173e-013
rhand 1.81764 -1.73745 34.2669
lshoulderjoint -1.67252 -5.05239 29.3434
lhumerus 364.833 -1.56295 414.531
lradius 17.2132 1.145e-013 -5.08889e-014
lwrist -1.33177e-013 -11.7162 -1.89209e-013
lhand 11.9399 10.0406 -32.131
rfemur -44.0776 2.94004 3.85483
rtibia 10.2298 -1.27222e-014 -5.56597e-015
rfoot -190.834 -60.6974 176.275
rtoes -6.52014e-014 -2.39834e-013 -1.16488e-013
lfemur -2.06718 -18.6826 -20.2423
ltibia 16.3436 4.92986e-014 9.54166e-015
lfoot -17.4391 7.81411 11.9654
ltoes 2.54444e-014 -9.85972e-014 7.87187e-014
1172
root -6.18928 3.59299 -0.656901 69.1022 -68.4876 64.9197
lowerback -23.0042 -4.2264 -9.47427
upperback -5.92584 -3.7745 0.650922
thorax 6.85251 -2.11351 5.01488
lowerneck 12.6865 -2.75765 0.327474
upperneck 4.89699 -3.87251 -5.20603
head -0.707024 -1.95696 -1.52183
rshoulderjoint -2.0832 6.11647 -29.8492
rhumerus 345.567 -11.6791 -412.047
rradius 24.9047 -1.20066e-013 -7.95139e-015
rwrist -9.86649e-014 2.12212 9.15037e-014
rhand 1.97603 -1.84538 34.2588
lshoulderjoint -1.67057 -5.02497 29.4164
lhumerus 364.127 -0.901201 414.66
lradius 16.8772 -1.59028e-013 -8.82604e-014
lwrist 9.42089e-014 -11.7463 -5.23834e-014
lhand 12.0245 10.1696 -31.9219
rfemur -43.9813 3.24521 4.35397
rtibia 11.6671 1.27222e-014 -5.56597e-015
rfoot -193.054 -63.1642 179.227
rtoes 1.51474e-013 1.91181e-013 -1.88199e-013
lfemur -2.12412 -18.4886 -19.9401
ltibia 17.7524 -1.98785e-014 -6.36111e-015
lfoot -16.5327 9.00053 12.097
ltoes -9.54166e-014 7.91163e-014 -2.78299e-014
1173
root -6.24305 3.60057 -0.658959 69.4867 -68.6131 65.6021
lowerback -23.2427 -4.0802 -8.96755
upperback -6.01329 -3.6946 0.717962
thorax 6.84544 -2.06956 4.81801
lowerneck 12.7205 -2.69339 0.266175
upperneck 5.10291 -3.79673 -5.2495
head -0.64377 -1.92685 -1.52945
rshoulderjoint -2.09959 6.15583 -29.8747
rhumerus 345.399 -12.1115 -411.987
rradius 24.6412 1.31993e-013 1.07344e-013
rwrist -8.84893e-013 2.27637 1.07428e-013
rhand 2.05937 -1.95691 34.1556
lshoulderjoint -1.67039 -5.01802 29.4383
lhumerus 363.374 -0.0266888 414.784
lradius 16.6325 1.06549e-013 -2.54444e-014
lwrist -1.27268e-012 -11.579 -3.66869e-013
lhand 12.1415 10.0941 -31.7129
rfemur -43.7023 3.63417 4.78372
rtibia 12.779 -1.59028e-014 -1.51076e-014
rfoot -194.904 -64.4768 181.222
rtoes 8.26944e-014 1.06499e-013 -1.84857e-013
lfemur -2.32273 -18.4045 -19.7246
ltibia 19.4492 2.3059e-014 -9.54166e-015
lfoot -15.4353 10.3666 12.3829
ltoes 1.39944e-013 2.42517e-014 -5.64548e-014
1174
root -6.29591 3.6087 -0.661271 69.772 -68.8225 66.2378
lowerback -23.3302 -3.92044 -8.4319
upperback -6.08298 -3.61822 0.802377
thorax 6.78244 -2.02477 4.62812
lowerneck 12.6939 -2.6315 0.21277
upperneck 5.34527 -3.72079 -5.29948
head -0.55915 -1.89819 -1.54132
rshoulderjoint -2.12022 6.20386 -29.9106
rhumerus 345.212 -12.5454 -411.944
rradius 24.5004 2.31385e-013 -6.12257e-014
rwrist -4.56789e-013 2.33431 -2.7853e-013
rhand 2.12201 -2.00109 33.9923
lshoulderjoint -1.66172 -4.97104 29.5102
lhumerus 362.566 1.0839 414.978
lradius 16.4844 1.67377e-013 5.56597e-015
lwrist -6.23489e-013 -11.6399 -2.18383e-013
lhand 12.1353 10.0852 -31.5239
rfemur -43.2095 4.03062 5.26574
rtibia 13.6629 -7.95139e-015 -4.77083e-015
rfoot -195.454 -64.7547 181.767
rtoes 7.55382e-015 1.64867e-014 -1.25607e-013
lfemur -2.65942 -18.0343 -19.4014
ltibia 21.5019 4.29375e-014 -6.36111e-015
lfoot -14.2161 12.0256 12.3712
ltoes 1.145e-013 -1.74931e-014 2.46493e-014
1175
root -6.34764 3.61702 -0.663719 70.0645 -69.0602 66.8617
lowerback -23.3377 -3.75148 -7.91035
upperback -6.16153 -3.53451 0.886616
thorax 6.66934 -1.97526 4.45109
lowerneck 12.726 -2.55626 0.111279
upperneck 5.54178 -3.63593 -5.32938
head -0.497235 -1.86461 -1.53799
rshoulderjoint -2.16759 6.32448 -29.9623
rhumerus 344.975 -13.1751 -411.869
rradius 24.4559 1.28812e-013 -1.145e-013
rwrist 2.30778e-013 2.31115 -3.31843e-013
rhand 2.23954 -1.87457 33.731
lshoulderjoint -1.66156 -4.95413 29.5673
lhumerus 361.734 2.50554 415.171
lradius 16.3816 6.69904e-014 -2.78299e-014
lwrist 1.49309e-013 -11.5122 -5.76139e-014
lhand 12.2221 9.71329 -31.2651
rfemur -42.6502 4.42768 5.73102
rtibia 14.3911 -2.38542e-014 -3.18055e-015
rfoot -194.251 -63.2188 180.425
rtoes -5.60573e-014 -1.88858e-013 1.44666e-013
lfemur -3.2253 -17.2645 -19.009
ltibia 23.9728 6.36111e-015 1.43125e-014
lfoot -12.8311 13.7693 11.9929
ltoes -3.18055e-015 -1.51871e-013 -8.74653e-015
